<?xml version="1.0" standalone="no"?>
<!DOCTYPE svg PUBLIC "-//W3C//DTD SVG 20010904//EN"
 "http://www.w3.org/TR/2001/REC-SVG-20010904/DTD/svg10.dtd">
<svg version="1.0" xmlns="http://www.w3.org/2000/svg"
 width="967.000000pt" height="967.000000pt" viewBox="0 0 967.000000 967.000000"
 preserveAspectRatio="xMidYMid meet">

<g transform="translate(0.000000,967.000000) scale(0.100000,-0.100000)"
fill="#000000" stroke="none">
<path d="M0 4835 l0 -4835 4835 0 4835 0 0 4835 0 4835 -4835 0 -4835 0 0
-4835z m2660 1920 l0 -516 23 -23 c16 -16 41 -26 78 -31 248 -31 429 -74 554
-130 129 -58 122 -56 139 -39 14 14 16 87 16 635 l0 619 84 0 c65 0 85 -3 90
-15 3 -10 19 -15 43 -15 57 0 227 -27 318 -51 189 -49 384 -151 495 -260 81
-79 144 -197 160 -299 6 -42 10 -677 10 -1781 0 -1891 3 -1789 -61 -1843 -53
-45 -94 -37 -265 48 -180 89 -307 137 -569 216 -312 94 -550 141 -1000 200
-126 16 -244 33 -261 38 -73 22 -115 57 -150 122 -18 34 -19 95 -19 1750 l0
1715 22 41 c28 53 74 91 119 100 20 4 38 13 41 20 4 10 24 14 69 14 l64 0 0
-515z m4463 501 c3 -7 21 -16 41 -20 45 -9 91 -47 119 -100 l22 -41 0 -1715
c0 -1655 -1 -1716 -19 -1750 -35 -65 -77 -100 -150 -122 -17 -5 -134 -22 -261
-38 -450 -59 -688 -106 -1000 -200 -262 -79 -389 -127 -569 -216 -171 -85
-212 -93 -265 -48 -64 54 -61 -48 -61 1843 0 1104 4 1739 10 1781 46 294 371
525 835 595 55 8 117 15 138 15 24 0 40 5 43 15 5 13 77 15 559 15 460 0 554
-2 558 -14z m-5094 -444 c19 -9 44 -30 55 -45 21 -28 21 -29 26 -1692 l5
-1664 21 -28 c43 -58 62 -62 406 -99 347 -36 618 -73 763 -105 91 -19 427
-114 609 -171 181 -57 481 -219 590 -319 65 -60 74 -97 30 -125 -24 -16 -38
-16 -182 -3 -251 22 -852 18 -1187 -10 -266 -21 -887 -87 -1098 -116 -144 -20
-213 -19 -263 4 -81 37 -75 -158 -72 2203 l3 2097 21 28 c33 45 79 63 164 63
52 0 86 -5 109 -18z m5828 -8 c15 -11 36 -36 45 -55 17 -32 18 -154 18 -2121
0 -2348 7 -2152 -74 -2189 -50 -23 -120 -24 -263 -4 -211 29 -832 95 -1098
116 -335 28 -936 32 -1187 10 -144 -13 -158 -13 -182 3 -86 56 52 179 385 345
143 71 204 93 544 191 339 97 501 125 1063 184 344 37 363 41 406 99 l21 28 5
1664 c5 1663 5 1664 26 1692 36 50 78 64 176 61 69 -2 92 -7 115 -24z"/>
</g>
</svg>
